<?xml version="1.0" standalone="no"?><svg xmlns="http://www.w3.org/2000/svg" viewBox="0 0 1440 320"><path fill="#0099ff" fill-opacity="1" d="M0,96L24,80C48,64,96,32,144,42.7C192,53,240,107,288,138.7C336,171,384,181,432,192C480,203,528,213,576,192C624,171,672,117,720,112C768,107,816,149,864,170.7C912,192,960,192,1008,192C1056,192,1104,192,1152,181.3C1200,171,1248,149,1296,128C1344,107,1392,85,1416,74.7L1440,64L1440,320L1416,320C1392,320,1344,320,1296,320C1248,320,1200,320,1152,320C1104,320,1056,320,1008,320C960,320,912,320,864,320C816,320,768,320,720,320C672,320,624,320,576,320C528,320,480,320,432,320C384,320,336,320,288,320C240,320,192,320,144,320C96,320,48,320,24,320L0,320Z"></path></svg>