<svg width="800" height="600" xmlns="http://www.w3.org/2000/svg">

 <g>
  <title>Layer 1</title>
  <g>
   <path stroke="null" d="m-1.61756,97.41796l3.55503,-7.57781c3.49769,-7.57781 10.77976,-22.73342 17.66046,-22.73342c6.99538,0 14.33479,15.15561 21.21549,5.06766c6.99538,-10.2774 13.7614,-45.32476 21.21549,-58.11231c6.93804,-12.78755 13.7614,-2.36806 21.21549,-2.51015c6.8807,0.14208 13.7614,-10.2774 21.21549,7.57781c6.82336,17.66576 13.7614,63.1326 21.21549,75.77807c6.76602,12.45602 13.7614,-7.43572 20.6421,-30.31123c7.33941,-22.59134 14.33479,-48.16644 21.21549,-53.04465c7.28207,-5.06766 14.33479,10.08796 21.21549,17.66576c7.22474,7.57781 14.33479,7.57781 21.21549,17.66576c7.1674,10.2774 14.33479,30.16914 21.21549,22.73342c7.1674,-7.71989 14.33479,-42.76725 21.21549,-47.97699c7.11006,-5.20974 14.33479,20.36536 21.21549,32.82138c7.05272,12.64547 14.33479,12.64547 21.21549,7.57781c6.99538,-4.87821 14.33479,-15.2977 21.21549,-10.08796c6.99538,5.20974 13.7614,25.10149 21.21549,22.73342c6.93804,-2.36806 13.7614,-27.94316 21.21549,-25.24357c6.8807,2.51015 13.7614,32.82138 21.21549,42.90933c6.82336,10.2774 13.7614,-0.14208 21.21549,-17.66576c6.76602,-17.52368 13.7614,-43.09878 20.6421,-58.11231c7.33941,-15.2977 14.33479,-20.03383 21.21549,-2.51015c7.28207,17.52368 14.33479,58.25439 21.21549,63.1326c7.22474,5.06766 14.33479,-25.24357 21.21549,-40.39918c7.1674,-15.15561 14.33479,-15.15561 21.21549,-7.57781c7.1674,7.57781 14.33479,22.73342 21.21549,27.80108c7.11006,4.87821 14.33479,0.14208 21.21549,5.0203c7.05272,5.06766 14.33479,20.22327 21.21549,17.71312c6.99538,-2.69959 14.33479,-22.59134 21.21549,-22.73342c6.99538,0.14208 13.7614,20.03383 21.21549,25.24357c6.93804,5.20974 13.7614,-5.20974 21.21549,-20.22327c6.8807,-15.2977 13.7614,-35.18944 21.21549,-35.33152c6.82336,0.14208 13.7614,20.03383 21.21549,32.82138c6.76602,12.78755 13.7614,17.52368 20.6421,5.06766c7.33941,-12.64547 14.33479,-42.95669 21.21549,-53.04465c7.28207,-10.2774 14.33479,0.14208 21.21549,17.66576c7.22474,17.52368 14.33479,43.09878 21.21549,55.5548c7.1674,12.64547 14.33479,12.64547 21.21549,17.71312c7.1674,4.87821 14.33479,15.2977 21.21549,15.15561c7.11006,0.14208 14.33479,-10.2774 17.77514,-15.15561l3.44035,-5.06766l0,30.31123l-3.55503,0c-3.49769,0 -10.77976,0 -17.66046,0c-6.99538,0 -14.33479,0 -21.21549,0c-6.99538,0 -13.7614,0 -21.21549,0c-6.93804,0 -13.7614,0 -21.21549,0c-6.8807,0 -13.7614,0 -21.21549,0c-6.82336,0 -13.7614,0 -21.21549,0c-6.76602,0 -13.7614,0 -20.6421,0c-7.33941,0 -14.33479,0 -21.21549,0c-7.28207,0 -14.33479,0 -21.21549,0c-7.22474,0 -14.33479,0 -21.21549,0c-7.1674,0 -14.33479,0 -21.21549,0c-7.1674,0 -14.33479,0 -21.21549,0c-7.11006,0 -14.33479,0 -21.21549,0c-7.05272,0 -14.33479,0 -21.21549,0c-6.99538,0 -14.33479,0 -21.21549,0c-6.99538,0 -13.7614,0 -21.21549,0c-6.93804,0 -13.7614,0 -21.21549,0c-6.8807,0 -13.7614,0 -21.21549,0c-6.82336,0 -13.7614,0 -21.21549,0c-6.76602,0 -13.7614,0 -20.6421,0c-7.33941,0 -14.33479,0 -21.21549,0c-7.28207,0 -14.33479,0 -21.21549,0c-7.22474,0 -14.33479,0 -21.21549,0c-7.1674,0 -14.33479,0 -21.21549,0c-7.1674,0 -14.33479,0 -21.21549,0c-7.11006,0 -14.33479,0 -21.21549,0c-7.05272,0 -14.33479,0 -21.21549,0c-6.99538,0 -14.33479,0 -21.21549,0c-6.99538,0 -13.7614,0 -21.21549,0c-6.93804,0 -13.7614,0 -21.21549,0c-6.8807,0 -13.7614,0 -21.21549,0c-6.82336,0 -13.7614,0 -21.21549,0c-6.76602,0 -13.7614,0 -20.6421,0c-7.33941,0 -14.33479,0 -21.21549,0c-7.28207,0 -14.33479,0 -21.21549,0c-7.22474,0 -14.33479,0 -21.21549,0c-7.1674,0 -14.33479,0 -21.21549,0c-7.1674,0 -14.33479,0 -21.21549,0c-7.11006,0 -14.33479,0 -17.77514,0l-3.44035,0l0,-30.31123z" fill="#000010"/>
  </g>
  <rect id="svg_2" height="506.12245" width="863.26531" y="120.40816" x="-42.85714" stroke="null" fill="#000010"/>
 </g>
</svg>