<svg width="800" height="600" xmlns="http://www.w3.org/2000/svg">

 <g>
  <title>Layer 1</title>
  <rect id="svg_2" height="506.12245" width="863.26531" y="120.40816" x="-42.85714" stroke="null" fill="#000010"/>
  <g>
   <path d="m-320,346.99819l10,-16c10,-16 30,-48 50,-48c20,0 40,32 60,37.3c20,5.7 40,-16.3 60,-5.3c20,11 40,53 60,64c20,11 40,-11 60,-37.3c20,-26.7 40,-58.7 60,-58.7c20,0 40,32 60,53.3c20,21.7 40,31.7 60,37.4c20,5.3 40,5.3 60,-16c20,-21.7 40,-63.7 60,-74.7c20,-11 40,11 60,26.7c20,16.3 40,26.3 60,42.6c20,15.7 40,37.7 60,5.4c20,-31.7 40,-117.7 60,-149.4c20,-32.3 40,-10.3 60,16c20,26.7 40,58.7 60,53.4c20,-5.7 40,-47.7 60,-80c20,-31.7 40,-53.7 60,-32c20,21.3 40,85.3 60,122.6c20,37.7 40,47.7 60,48c20,-0.3 40,-10.3 60,-5.3c20,5 40,27 60,5.3c20,-21.3 40,-85.3 60,-80c20,5.7 40,79.7 50,117.4l10,37.3l0,32l-10,0c-10,0 -30,0 -50,0c-20,0 -40,0 -60,0c-20,0 -40,0 -60,0c-20,0 -40,0 -60,0c-20,0 -40,0 -60,0c-20,0 -40,0 -60,0c-20,0 -40,0 -60,0c-20,0 -40,0 -60,0c-20,0 -40,0 -60,0c-20,0 -40,0 -60,0c-20,0 -40,0 -60,0c-20,0 -40,0 -60,0c-20,0 -40,0 -60,0c-20,0 -40,0 -60,0c-20,0 -40,0 -60,0c-20,0 -40,0 -60,0c-20,0 -40,0 -60,0c-20,0 -40,0 -60,0c-20,0 -40,0 -60,0c-20,0 -40,0 -60,0c-20,0 -40,0 -60,0c-20,0 -40,0 -60,0c-20,0 -40,0 -60,0c-20,0 -40,0 -50,0l-10,0l0,-96z" fill="10"/>
  </g>
  <g>
   <path d="m-320,346.99819l10,-16c10,-16 30,-48 50,-48c20,0 40,32 60,37.3c20,5.7 40,-16.3 60,-5.3c20,11 40,53 60,64c20,11 40,-11 60,-37.3c20,-26.7 40,-58.7 60,-58.7c20,0 40,32 60,53.3c20,21.7 40,31.7 60,37.4c20,5.3 40,5.3 60,-16c20,-21.7 40,-63.7 60,-74.7c20,-11 40,11 60,26.7c20,16.3 40,26.3 60,42.6c20,15.7 40,37.7 60,5.4c20,-31.7 40,-117.7 60,-149.4c20,-32.3 40,-10.3 60,16c20,26.7 40,58.7 60,53.4c20,-5.7 40,-47.7 60,-80c20,-31.7 40,-53.7 60,-32c20,21.3 40,85.3 60,122.6c20,37.7 40,47.7 60,48c20,-0.3 40,-10.3 60,-5.3c20,5 40,27 60,5.3c20,-21.3 40,-85.3 60,-80c20,5.7 40,79.7 50,117.4l10,37.3l0,32l-10,0c-10,0 -30,0 -50,0c-20,0 -40,0 -60,0c-20,0 -40,0 -60,0c-20,0 -40,0 -60,0c-20,0 -40,0 -60,0c-20,0 -40,0 -60,0c-20,0 -40,0 -60,0c-20,0 -40,0 -60,0c-20,0 -40,0 -60,0c-20,0 -40,0 -60,0c-20,0 -40,0 -60,0c-20,0 -40,0 -60,0c-20,0 -40,0 -60,0c-20,0 -40,0 -60,0c-20,0 -40,0 -60,0c-20,0 -40,0 -60,0c-20,0 -40,0 -60,0c-20,0 -40,0 -60,0c-20,0 -40,0 -60,0c-20,0 -40,0 -60,0c-20,0 -40,0 -60,0c-20,0 -40,0 -60,0c-20,0 -40,0 -60,0c-20,0 -40,0 -50,0l-10,0l0,-96z" fill="10"/>
  </g>
  <g stroke="null">
   <path stroke="null" d="m-1.01141,80.58547l5.5696,-6.73133c5.5696,-6.73133 16.70881,-20.19398 27.84801,-20.19398c11.13921,0 22.27841,13.46266 33.41762,15.69241c11.13921,2.39804 22.27841,-6.85754 33.41762,-2.22975c11.13921,4.62779 22.27841,22.29752 33.41762,26.92531c11.13921,4.62779 22.27841,-4.62779 33.41762,-15.69241c11.13921,-11.2329 22.27841,-24.69556 33.41762,-24.69556c11.13921,0 22.27841,13.46266 33.41762,22.42374c11.13921,9.12936 22.27841,13.33644 33.41762,15.73448c11.13921,2.22975 22.27841,2.22975 33.41762,-6.73133c11.13921,-9.12936 22.27841,-26.7991 33.41762,-31.42689c11.13921,-4.62779 22.27841,4.62779 33.41762,11.2329c11.13921,6.85754 22.27841,11.06462 33.41762,17.92216c11.13921,6.60512 22.27841,15.86069 33.41762,2.27182c11.13921,-13.33644 22.27841,-49.51733 33.41762,-62.85377c11.13921,-13.58887 22.27841,-4.33329 33.41762,6.73133c11.13921,11.2329 22.27841,24.69556 33.41762,22.46581c11.13921,-2.39804 22.27841,-20.06777 33.41762,-33.65664c11.13921,-13.33644 22.27841,-22.59202 33.41762,-13.46266c11.13921,8.96108 22.27841,35.88639 33.41762,51.5788c11.13921,15.86069 22.27841,20.06777 33.41762,20.19398c11.13921,-0.12621 22.27841,-4.33329 33.41762,-2.22975c11.13921,2.10354 22.27841,11.35912 33.41762,2.22975c11.13921,-8.96108 22.27841,-35.88639 33.41762,-33.65664c11.13921,2.39804 22.27841,33.53043 27.84801,49.39112l5.5696,15.69241l0,13.46266l-5.5696,0c-5.5696,0 -16.70881,0 -27.84801,0c-11.13921,0 -22.27841,0 -33.41762,0c-11.13921,0 -22.27841,0 -33.41762,0c-11.13921,0 -22.27841,0 -33.41762,0c-11.13921,0 -22.27841,0 -33.41762,0c-11.13921,0 -22.27841,0 -33.41762,0c-11.13921,0 -22.27841,0 -33.41762,0c-11.13921,0 -22.27841,0 -33.41762,0c-11.13921,0 -22.27841,0 -33.41762,0c-11.13921,0 -22.27841,0 -33.41762,0c-11.13921,0 -22.27841,0 -33.41762,0c-11.13921,0 -22.27841,0 -33.41762,0c-11.13921,0 -22.27841,0 -33.41762,0c-11.13921,0 -22.27841,0 -33.41762,0c-11.13921,0 -22.27841,0 -33.41762,0c-11.13921,0 -22.27841,0 -33.41762,0c-11.13921,0 -22.27841,0 -33.41762,0c-11.13921,0 -22.27841,0 -33.41762,0c-11.13921,0 -22.27841,0 -33.41762,0c-11.13921,0 -22.27841,0 -33.41762,0c-11.13921,0 -22.27841,0 -33.41762,0c-11.13921,0 -22.27841,0 -33.41762,0c-11.13921,0 -22.27841,0 -33.41762,0c-11.13921,0 -22.27841,0 -27.84801,0l-5.5696,0l0,-40.38797z" fill="10"/>
  </g>
 </g>
</svg>