<svg width="800" height="2000" xmlns="http://www.w3.org/2000/svg">
 <g>
  <title>Layer 1</title>
  <path stroke="null" id="svg_2" d="m-46.85714,110.40816l863.26532,0l0,1974.26814l-863.26532,0l0,-1974.26814z" opacity="undefined" fill="#043422"/>
  <g id="svg_1" stroke="null">
   <path id="svg_3" fill="#043422" d="m-1.44446,95.319l6.37995,-12.07063c6.43592,-11.88979 19.36372,-36.30229 32.23556,-53.02938c12.53605,-16.72708 25.18403,-26.67292 38.05586,-26.53729c12.87184,-0.13563 25.74367,9.81021 38.61551,14.46667c12.64798,4.83729 25.18403,4.83729 38.05586,2.44125c12.9278,-2.57688 25.74367,-7.09771 38.61551,7.23333c12.70394,14.60229 25.74367,48.05646 38.05586,57.86667c13.03973,9.62938 25.74367,-4.83729 38.61551,-7.23333c12.81587,-2.57688 25.74367,7.36896 38.61551,12.02542c12.53605,4.83729 25.18403,4.83729 38.05586,-7.23333c12.87184,-11.88979 25.74367,-36.30229 38.61551,-48.19208c12.64798,-12.07063 25.18403,-12.07063 38.05586,0c12.9278,11.88979 25.74367,36.30229 38.61551,33.72542c12.70394,-2.39604 25.74367,-31.32938 38.05586,-26.49208c13.03973,4.65646 25.74367,43.53563 38.61551,53.02938c12.81587,9.49375 25.74367,-9.49375 38.61551,-21.7c12.53605,-12.20625 25.18403,-16.72708 38.05586,-24.09604c12.87184,-7.09771 25.74367,-17.04354 38.61551,-24.14125c12.64798,-7.36896 25.18403,-11.88979 38.05586,0c12.9278,12.07063 25.74367,41.00396 38.61551,38.60792c12.70394,-2.57688 25.74367,-36.03104 38.05586,-33.77063c13.03973,2.26042 25.74367,41.13958 32.45941,60.26271l6.1561,19.30396l0,14.46667l-6.37995,0c-6.43592,0 -19.36372,0 -32.23556,0c-12.53605,0 -25.18403,0 -38.05586,0c-12.87184,0 -25.74367,0 -38.61551,0c-12.64798,0 -25.18403,0 -38.05586,0c-12.9278,0 -25.74367,0 -38.61551,0c-12.70394,0 -25.74367,0 -38.05586,0c-13.03973,0 -25.74367,0 -38.61551,0c-12.81587,0 -25.74367,0 -38.61551,0c-12.53605,0 -25.18403,0 -38.05586,0c-12.87184,0 -25.74367,0 -38.61551,0c-12.64798,0 -25.18403,0 -38.05586,0c-12.9278,0 -25.74367,0 -38.61551,0c-12.70394,0 -25.74367,0 -38.05586,0c-13.03973,0 -25.74367,0 -38.61551,0c-12.81587,0 -25.74367,0 -38.61551,0c-12.53605,0 -25.18403,0 -38.05586,0c-12.87184,0 -25.74367,0 -38.61551,0c-12.64798,0 -25.18403,0 -38.05586,0c-12.9278,0 -25.74367,0 -38.61551,0c-12.70394,0 -25.74367,0 -38.05586,0c-13.03973,0 -25.74367,0 -32.45941,0l-6.1561,0l0,-28.93333l0,-0.00003z" stroke="null"/>
  </g>
 </g>

</svg>