<svg width="800" height="3000" xmlns="http://www.w3.org/2000/svg">
 <g>
  <title>Layer 1</title>
  <path stroke="null" fill="#0099ff" opacity="undefined" d="m-46.85714,132.40816l863.26532,0l0,2912.2682l-863.26532,0l0,-2912.2682z" id="svg_2"/>
  <g stroke="null">
   <path stroke="null" d="m-0.00002,102.93334l3.61111,0c3.61111,0 10.83333,0 18.05556,-8.57778c7.16667,-8.57778 14.44445,-25.73333 21.66667,-40.0475c7.11111,-14.09972 14.44445,-25.89417 21.66667,-22.83833c7.05556,2.84139 14.44445,19.99695 21.66667,25.73333c7,5.52194 14.44445,0.16083 21.66667,-8.57778c7,-8.41694 14.44445,-20.21139 21.66667,-5.73639c6.94444,14.475 13.88889,54.14723 21.11111,65.78084c7.44444,11.41917 14.44445,-5.73639 21.66667,-28.62833c7.38889,-22.6775 14.44445,-51.6275 21.66667,-39.99389c7.33333,11.41917 14.44445,62.88584 21.66667,65.72723c7.33333,3.05583 14.44445,-43.04972 21.66667,-54.30806c7.27778,-11.25833 14.44445,11.25833 21.66667,28.57472c7.22222,16.99472 14.44445,28.78917 21.66667,28.62833c7.16667,0.16083 14.44445,-11.63361 21.66667,-28.62833c7.11111,-17.31639 14.44445,-39.83306 21.66667,-34.31111c7.11111,5.73639 14.44445,40.0475 21.66667,57.20306c7.05556,17.15556 14.44445,17.15556 21.66667,17.15556c7,0 14.44445,0 21.66667,-11.41917c6.94444,-11.63361 13.88889,-34.15028 21.11111,-54.36167c7.44444,-19.99695 14.44445,-37.1525 21.66667,-37.1525c7.44444,0 14.44445,17.15556 21.66667,22.89195c7.38889,5.52194 14.44445,0.16083 21.66667,-11.47278c7.33333,-11.41917 14.44445,-28.57472 21.66667,-28.57472c7.27778,0 14.44445,17.15556 21.66667,45.73028c7.22222,28.78917 14.44445,68.46139 21.66667,62.93945c7.16667,-5.73639 14.44445,-57.20306 21.66667,-80.095c7.16667,-22.6775 14.44445,-17.31639 21.66667,8.57778c7.11111,25.5725 14.44445,71.67806 21.66667,80.095c7.05556,8.73861 14.44445,-20.21139 21.66667,-25.73333c7,-5.73639 14.44445,11.41917 21.66667,14.26056c6.94444,3.05583 14.44445,-8.73861 21.11111,-22.83833c7.5,-14.31417 14.44445,-31.46972 21.66667,-31.46972c7.44444,0 14.44445,17.15556 21.66667,22.89195c7.38889,5.52194 14.44445,0.16083 21.66667,5.68278c7.33333,5.73639 14.44445,22.89195 21.66667,14.31417c7.27778,-8.57778 14.44445,-42.88889 21.66667,-45.73028c7.27778,-3.05583 14.44445,25.89417 18.33333,39.99389l3.33333,14.31417l0,51.46667l-3.61111,0c-3.61111,0 -10.83333,0 -18.05556,0c-7.16667,0 -14.44445,0 -21.66667,0c-7.11111,0 -14.44445,0 -21.66667,0c-7.05556,0 -14.44445,0 -21.66667,0c-7,0 -14.44445,0 -21.66667,0c-7,0 -14.44445,0 -21.66667,0c-6.94444,0 -13.88889,0 -21.11111,0c-7.44444,0 -14.44445,0 -21.66667,0c-7.38889,0 -14.44445,0 -21.66667,0c-7.33333,0 -14.44445,0 -21.66667,0c-7.33333,0 -14.44445,0 -21.66667,0c-7.27778,0 -14.44445,0 -21.66667,0c-7.22222,0 -14.44445,0 -21.66667,0c-7.16667,0 -14.44445,0 -21.66667,0c-7.11111,0 -14.44445,0 -21.66667,0c-7.11111,0 -14.44445,0 -21.66667,0c-7.05556,0 -14.44445,0 -21.66667,0c-7,0 -14.44445,0 -21.66667,0c-6.94444,0 -13.88889,0 -21.11111,0c-7.44444,0 -14.44445,0 -21.66667,0c-7.44444,0 -14.44445,0 -21.66667,0c-7.38889,0 -14.44445,0 -21.66667,0c-7.33333,0 -14.44445,0 -21.66667,0c-7.27778,0 -14.44445,0 -21.66667,0c-7.22222,0 -14.44445,0 -21.66667,0c-7.16667,0 -14.44445,0 -21.66667,0c-7.16667,0 -14.44445,0 -21.66667,0c-7.11111,0 -14.44445,0 -21.66667,0c-7.05556,0 -14.44445,0 -21.66667,0c-7,0 -14.44445,0 -21.66667,0c-6.94444,0 -14.44445,0 -21.11111,0c-7.5,0 -14.44445,0 -21.66667,0c-7.44444,0 -14.44445,0 -21.66667,0c-7.38889,0 -14.44445,0 -21.66667,0c-7.33333,0 -14.44445,0 -21.66667,0c-7.27778,0 -14.44445,0 -21.66667,0c-7.27778,0 -14.44445,0 -18.33333,0l-3.33333,0l0,-51.46667z" fill="#0099ff"/>
  </g>
 </g>

</svg>